C:\Users\r0593348\3dpredictsim\Results\batch_windlass\Pog_s1_tmt_bCst_d00_k800_WL10_ig24_pas_GRF.mot
nRows=22
nColumns=19

name C:\Users\r0593348\3dpredictsim\Results\batch_windlass\Pog_s1_tmt_bCst_d00_k800_WL10_ig24_pas_GRF.mot
datacolumns 19
datarows 22
range 0.0000000000 0.2260648488
endheader
time 	ground_force_vx	ground_force_vy	ground_force_vz	ground_force_px	ground_force_py	ground_force_pz	1_ground_force_vx	1_ground_force_vy	1_ground_force_vz	1_ground_force_px	1_ground_force_py	1_ground_force_pz	ground_torque_x	ground_torque_y	ground_torque_z	1_ground_torque_x	1_ground_torque_y	1_ground_torque_z
        0.0000000000	      -75.5422402595	       55.9018287339	       21.4816095096	        0.1343859420	        0.0000000000	        0.0417624611	      100.6921465671	      478.1910775430	       -0.5646828203	       -0.3311123269	        0.0000000000	       -0.0347561514	        0.0000000000	        0.0000000000	        0.0000000000	        0.0000000000	        0.0000000000	        0.0000000000	
        0.0107649928	     -116.8534996963	      108.9758893488	       44.5500087517	        0.1451971473	        0.0000000000	        0.0393654599	       82.9405784633	      388.8528572929	       -4.1567766756	       -0.3265219808	        0.0000000000	       -0.0330692826	        0.0000000000	        0.0000000000	        0.0000000000	        0.0000000000	        0.0000000000	        0.0000000000	
        0.0215299856	     -109.3250159609	      222.4819636639	       67.0558712055	        0.1563087849	        0.0000000000	        0.0392006194	       51.5271964269	      288.1239966128	      -13.9656990204	       -0.3190132674	        0.0000000000	       -0.0298669688	        0.0000000000	        0.0000000000	        0.0000000000	        0.0000000000	        0.0000000000	        0.0000000000	
        0.0322949784	      -57.6578212947	      452.9645485800	       13.0455167926	        0.1675243625	        0.0000000000	        0.0402274675	       21.5921333524	      188.6001912504	      -13.7826754590	       -0.3055859513	        0.0000000000	       -0.0228792069	        0.0000000000	        0.0000000000	        0.0000000000	        0.0000000000	        0.0000000000	        0.0000000000	
        0.0430599712	      -81.8880858651	      684.0705166723	       -8.2232679746	        0.1773919359	        0.0000000000	        0.0411862581	        4.1296560598	      143.6059664004	      -11.3525800847	       -0.2989899904	        0.0000000000	       -0.0186957488	        0.0000000000	        0.0000000000	        0.0000000000	        0.0000000000	        0.0000000000	        0.0000000000	
        0.0538249640	     -114.8644765572	      872.2362710138	      -13.5474675542	        0.1874109457	        0.0000000000	        0.0407497272	       -1.4570102096	      108.9352468474	      -10.4367283906	       -0.2987638203	        0.0000000000	       -0.0186963849	        0.0000000000	        0.0000000000	        0.0000000000	        0.0000000000	        0.0000000000	        0.0000000000	
        0.0645899568	     -128.4386560825	      947.7629725804	      -14.2867635884	        0.1963747662	        0.0000000000	        0.0399498252	      -11.3007042208	       66.0516668001	       -9.1493991212	       -0.2990756385	        0.0000000000	       -0.0187767383	        0.0000000000	        0.0000000000	        0.0000000000	        0.0000000000	        0.0000000000	        0.0000000000	
        0.0753549496	     -122.6308041809	      924.9639834564	       -9.8295347025	        0.2008267304	        0.0000000000	        0.0394011035	       -8.4266769230	       18.2054819472	       -3.3386219184	       -0.2991991422	        0.0000000000	       -0.0186267101	        0.0000000000	        0.0000000000	        0.0000000000	        0.0000000000	        0.0000000000	        0.0000000000	
        0.0861199424	     -106.2700154252	      869.5609268632	       -8.0783346599	        0.2041221438	        0.0000000000	        0.0389709857	        0.1314783190	       -0.1350602577	        0.0144714991	        0.0000000000	        0.0000000000	        0.0000000000	        0.0000000000	        0.0000000000	        0.0000000000	        0.0000000000	        0.0000000000	        0.0000000000	
        0.0968849352	      -91.7591020453	      814.5904107895	       -9.5416794614	        0.2073004797	        0.0000000000	        0.0386210516	        0.0003684469	       -0.0003167756	        0.0000051317	        0.0000000000	        0.0000000000	        0.0000000000	        0.0000000000	        0.0000000000	        0.0000000000	        0.0000000000	        0.0000000000	        0.0000000000	
        0.1076499280	      -78.7072228251	      769.4978364014	      -11.5032887956	        0.2104555811	        0.0000000000	        0.0383864427	        0.0000376202	       -0.0000276069	       -0.0000009947	        0.0000000000	        0.0000000000	        0.0000000000	        0.0000000000	        0.0000000000	        0.0000000000	        0.0000000000	        0.0000000000	        0.0000000000	
        0.1184149208	      -66.3461684463	      731.4034072878	      -12.7171190799	        0.2136111371	        0.0000000000	        0.0382579137	        0.0001060208	       -0.0000682985	       -0.0000053964	        0.0000000000	        0.0000000000	        0.0000000000	        0.0000000000	        0.0000000000	        0.0000000000	        0.0000000000	        0.0000000000	        0.0000000000	
        0.1291799136	      -54.5280585279	      698.0260983267	      -14.2820112075	        0.2173366453	        0.0000000000	        0.0381920138	        0.0020233759	       -0.0011780925	       -0.0001334827	        0.0000000000	        0.0000000000	        0.0000000000	        0.0000000000	        0.0000000000	        0.0000000000	        0.0000000000	        0.0000000000	        0.0000000000	
        0.1399449064	      -45.1333515198	      669.1851446847	      -16.2972860725	        0.2221894443	        0.0000000000	        0.0381314949	       -0.0163747951	        0.0088358399	        0.0012514134	        0.0000000000	        0.0000000000	        0.0000000000	        0.0000000000	        0.0000000000	        0.0000000000	        0.0000000000	        0.0000000000	        0.0000000000	
        0.1507098992	      -38.8576281510	      645.4396792806	      -18.2460129645	        0.2277937225	        0.0000000000	        0.0380645919	       -0.0159896353	        0.0081458585	        0.0013599109	        0.0000000000	        0.0000000000	        0.0000000000	        0.0000000000	        0.0000000000	        0.0000000000	        0.0000000000	        0.0000000000	        0.0000000000	
        0.1614748920	      -34.0609771627	      626.3925454710	      -19.2756977843	        0.2335083580	        0.0000000000	        0.0380209686	       -0.0106086912	        0.0051622469	        0.0009772329	        0.0000000000	        0.0000000000	        0.0000000000	        0.0000000000	        0.0000000000	        0.0000000000	        0.0000000000	        0.0000000000	        0.0000000000	
        0.1722398848	      -29.8912025702	      612.2802272402	      -19.8993743651	        0.2394586933	        0.0000000000	        0.0379734774	       -0.0084924378	        0.0039738041	        0.0008308135	        0.0000000000	        0.0000000000	        0.0000000000	        0.0000000000	        0.0000000000	        0.0000000000	        0.0000000000	        0.0000000000	        0.0000000000	
        0.1830048776	      -26.7888724850	      602.0090389222	      -20.2278085230	        0.2454529735	        0.0000000000	        0.0379193011	       -0.0088817818	        0.0040133593	        0.0009101373	        0.0000000000	        0.0000000000	        0.0000000000	        0.0000000000	        0.0000000000	        0.0000000000	        0.0000000000	        0.0000000000	        0.0000000000	
        0.1937698704	      -24.1303347573	      594.3854166472	      -19.8672341402	        0.2512975053	        0.0000000000	        0.0378709353	       -0.0120414608	        0.0052708480	        0.0012730936	        0.0000000000	        0.0000000000	        0.0000000000	        0.0000000000	        0.0000000000	        0.0000000000	        0.0000000000	        0.0000000000	        0.0000000000	
        0.2045348632	      -21.7590493121	      588.8622293599	      -19.2874353785	        0.2570528420	        0.0000000000	        0.0378131980	       -0.0200869164	        0.0085427070	        0.0021581647	        0.0000000000	        0.0000000000	        0.0000000000	        0.0000000000	        0.0000000000	        0.0000000000	        0.0000000000	        0.0000000000	        0.0000000000	
        0.2152998560	      -20.4057331830	      585.0443604993	      -18.4656086390	        0.2626209304	        0.0000000000	        0.0377471052	       -0.0384417844	        0.0159325891	        0.0041468258	        0.0000000000	        0.0000000000	        0.0000000000	        0.0000000000	        0.0000000000	        0.0000000000	        0.0000000000	        0.0000000000	        0.0000000000	
        0.2260648488	      -19.1239423391	      581.7160601278	      -17.6137524349	        0.2678689190	        0.0000000000	        0.0376846087	       -0.0781672918	        0.0316708545	        0.0083965410	        0.0000000000	        0.0000000000	        0.0000000000	        0.0000000000	        0.0000000000	        0.0000000000	        0.0000000000	        0.0000000000	        0.0000000000	
